<svg width="16" height="16" viewBox="0 0 16 16" fill="none" xmlns="http://www.w3.org/2000/svg">
<path d="M10.7447 14.0958C10.7448 14.5105 10.5882 14.9099 10.3062 15.2139C10.0243 15.518 9.6378 15.7042 9.2243 15.7353L9.10103 15.7394H7.45741C7.04274 15.7396 6.64335 15.583 6.33929 15.301C6.03524 15.019 5.84899 14.6326 5.81789 14.2191L5.81378 14.0958H10.7447ZM8.27922 0.125C9.77079 0.124975 11.2041 0.70429 12.2767 1.74074C13.3493 2.7772 13.9775 4.18975 14.0286 5.68045L14.0319 5.87769V8.97099L15.5292 11.9657C15.5946 12.0963 15.6273 12.2409 15.6246 12.387C15.6218 12.533 15.5837 12.6763 15.5135 12.8044C15.4433 12.9325 15.3431 13.0417 15.2215 13.1226C15.0998 13.2036 14.9604 13.2538 14.8151 13.2691L14.7206 13.274H1.83785C1.69171 13.274 1.54773 13.2386 1.41825 13.1709C1.28878 13.1031 1.17768 13.0049 1.09446 12.8847C1.01124 12.7646 0.95839 12.6261 0.940439 12.481C0.922488 12.336 0.93997 12.1888 0.991388 12.052L1.02919 11.9657L2.52653 8.97099V5.87769C2.52653 4.35198 3.13262 2.88876 4.21146 1.80992C5.29029 0.731085 6.75351 0.125 8.27922 0.125Z" fill="white"/>
</svg>
