<svg width="16" height="13" viewBox="0 0 16 13" fill="none" xmlns="http://www.w3.org/2000/svg">
<path fill-rule="evenodd" clip-rule="evenodd" d="M3.76953 1.59766C3.76953 0.772656 4.44453 0.0976562 5.26953 0.0976562H13.5195C13.9174 0.0976563 14.2989 0.255691 14.5802 0.536996C14.8615 0.818301 15.0195 1.19983 15.0195 1.59766V6.84766C15.0195 7.24548 14.8615 7.62701 14.5802 7.90832C14.2989 8.18962 13.9174 8.34766 13.5195 8.34766H12.0195V5.34766C12.0195 4.75092 11.7825 4.17862 11.3605 3.75667C10.9386 3.33471 10.3663 3.09766 9.76953 3.09766H3.76953V1.59766Z" fill="#333333"/>
<path fill-rule="evenodd" clip-rule="evenodd" d="M0.0195312 5.34766C0.0195312 4.52266 0.694531 3.84766 1.51953 3.84766H9.76953C10.1674 3.84766 10.5489 4.00569 10.8302 4.287C11.1115 4.5683 11.2695 4.94983 11.2695 5.34766V10.5977C11.2695 10.9955 11.1115 11.377 10.8302 11.6583C10.5489 11.9396 10.1674 12.0977 9.76953 12.0977H1.51953C1.12171 12.0977 0.740175 11.9396 0.458871 11.6583C0.177566 11.377 0.0195313 10.9955 0.0195312 10.5977V5.34766ZM5.64453 6.09766C5.14725 6.09766 4.67034 6.2952 4.31871 6.64683C3.96708 6.99846 3.76953 7.47538 3.76953 7.97266C3.76953 8.46994 3.96708 8.94685 4.31871 9.29848C4.67034 9.65011 5.14725 9.84766 5.64453 9.84766C6.14181 9.84766 6.61873 9.65011 6.97036 9.29848C7.32199 8.94685 7.51953 8.46994 7.51953 7.97266C7.51953 7.47538 7.32199 6.99846 6.97036 6.64683C6.61873 6.2952 6.14181 6.09766 5.64453 6.09766Z" fill="#333333"/>
<path d="M6.39453 7.97266C6.39453 8.17157 6.31551 8.36233 6.17486 8.50299C6.03421 8.64364 5.84344 8.72266 5.64453 8.72266C5.44562 8.72266 5.25485 8.64364 5.1142 8.50299C4.97355 8.36233 4.89453 8.17157 4.89453 7.97266C4.89453 7.77374 4.97355 7.58298 5.1142 7.44233C5.25485 7.30167 5.44562 7.22266 5.64453 7.22266C5.84344 7.22266 6.03421 7.30167 6.17486 7.44233C6.31551 7.58298 6.39453 7.77374 6.39453 7.97266Z" fill="#333333"/>
</svg>
