<svg width="8" height="14" viewBox="0 0 8 14" fill="none" xmlns="http://www.w3.org/2000/svg">
<path d="M0.160156 9.34766H1.66016C1.66016 10.1577 2.68766 10.8477 3.91016 10.8477C5.13266 10.8477 6.16016 10.1577 6.16016 9.34766C6.16016 8.52266 5.38016 8.22266 3.73016 7.82516C2.14016 7.42766 0.160156 6.93266 0.160156 4.84766C0.160156 3.50516 1.26266 2.36516 2.78516 1.98266V0.347656H5.03516V1.98266C6.55766 2.36516 7.66016 3.50516 7.66016 4.84766H6.16016C6.16016 4.03766 5.13266 3.34766 3.91016 3.34766C2.68766 3.34766 1.66016 4.03766 1.66016 4.84766C1.66016 5.67266 2.44016 5.97266 4.09016 6.37016C5.68016 6.76766 7.66016 7.26266 7.66016 9.34766C7.66016 10.6902 6.55766 11.8302 5.03516 12.2127V13.8477H2.78516V12.2127C1.26266 11.8302 0.160156 10.6902 0.160156 9.34766Z" fill="#333333"/>
</svg>
