<svg width="19" height="18" viewBox="0 0 19 18" fill="none" xmlns="http://www.w3.org/2000/svg">
<g clip-path="url(#clip0_158_7320)">
<path opacity="0.97" fill-rule="evenodd" clip-rule="evenodd" d="M9.30033 -0.015625C9.62534 -0.015625 9.95039 -0.015625 10.2754 -0.015625C10.6621 0.275312 10.6853 0.591717 10.3451 0.933594C10.3103 1.43696 10.2986 1.94086 10.3102 2.44531C10.5079 2.43947 10.7052 2.44533 10.9022 2.46289C11.0655 2.49522 11.1874 2.58311 11.2679 2.72656C11.3191 3.54458 11.3365 4.36488 11.3201 5.1875C10.287 5.1875 9.2539 5.1875 8.22077 5.1875C8.20444 4.37659 8.22185 3.56799 8.27301 2.76172C8.35053 2.60814 8.47241 2.50853 8.63866 2.46289C8.8473 2.44533 9.05624 2.43947 9.2655 2.44531C9.27132 1.95298 9.2655 1.4608 9.24809 0.96875C8.97068 0.751249 8.91263 0.481716 9.07397 0.160156C9.1424 0.0880736 9.21786 0.02948 9.30033 -0.015625Z" fill="#333333"/>
<path opacity="0.977" fill-rule="evenodd" clip-rule="evenodd" d="M4.60063 1.49438C5.44812 1.48853 6.29549 1.49438 7.1428 1.51196C7.29951 1.57641 7.4098 1.68774 7.47364 1.84595C7.48067 2.20457 7.49808 2.56199 7.52587 2.91821C7.48701 3.68954 7.11557 4.22272 6.41149 4.51782C6.37681 4.73924 6.36518 4.96192 6.37667 5.18579C6.02843 5.18579 5.68018 5.18579 5.33194 5.18579C5.33772 4.96283 5.33194 4.74018 5.31453 4.51782C4.76901 4.29521 4.42076 3.89675 4.2698 3.32251C4.21658 2.84335 4.20497 2.36288 4.23498 1.8811C4.29363 1.6872 4.41551 1.55829 4.60063 1.49438Z" fill="#333333"/>
<path opacity="0.977" fill-rule="evenodd" clip-rule="evenodd" d="M12.5059 1.49438C13.3534 1.48853 14.2008 1.49438 15.0481 1.51196C15.212 1.55079 15.3223 1.6504 15.3789 1.81079C15.4593 2.3643 15.4477 2.91508 15.3441 3.46313C15.1595 3.97177 14.817 4.32334 14.3168 4.51782C14.2821 4.73924 14.2705 4.96192 14.2819 5.18579C13.9453 5.18579 13.6087 5.18579 13.272 5.18579C13.2835 4.96192 13.2719 4.73924 13.2372 4.51782C12.666 4.29855 12.3119 3.88838 12.1751 3.28735C12.1233 2.84325 12.1117 2.39794 12.1403 1.95142C12.1692 1.71767 12.291 1.56533 12.5059 1.49438Z" fill="#333333"/>
<path opacity="0.992" fill-rule="evenodd" clip-rule="evenodd" d="M4.0074 6.17017C7.8613 6.1643 11.7152 6.17017 15.5691 6.18775C15.7988 6.26731 15.9439 6.42551 16.0044 6.66236C16.0276 8.8186 16.0276 10.9749 16.0044 13.1311C15.7969 13.8189 15.35 14.0592 14.6636 13.8518C14.3513 13.6956 14.1714 13.4436 14.1239 13.096C14.1123 12.5217 14.1006 11.9475 14.089 11.3733C13.9654 10.9144 13.6694 10.6683 13.201 10.635C12.6679 10.6635 12.3602 10.9447 12.2782 11.4788C12.2822 11.9165 12.2474 12.3501 12.1737 12.7795C11.8168 13.6427 11.1726 14.0235 10.241 13.9221C9.43028 13.8535 8.91369 13.4258 8.69127 12.6389C8.70541 11.959 8.46746 11.3906 7.97737 10.9338C7.38244 10.5479 6.77879 10.5362 6.16651 10.8987C5.81687 11.1464 5.59052 11.4804 5.48744 11.9006C5.4485 12.3332 5.42528 12.7668 5.41779 13.2014C5.20759 13.7911 4.79551 14.0196 4.18153 13.887C3.87063 13.7724 3.66749 13.5555 3.5721 13.2366C3.54888 11.0217 3.54888 8.80689 3.5721 6.59205C3.66853 6.395 3.81363 6.25437 4.0074 6.17017Z" fill="#333333"/>
<path opacity="0.983" fill-rule="evenodd" clip-rule="evenodd" d="M13.2022 17.9805C10.927 17.9805 8.65177 17.9805 6.37659 17.9805C6.24085 17.9063 6.16538 17.789 6.15023 17.6289C6.12701 17.3594 6.12701 17.0899 6.15023 16.8203C6.17646 16.6182 6.28671 16.4951 6.48106 16.4512C7.11706 16.5147 7.64521 16.3096 8.06557 15.8359C8.21291 15.6242 8.30575 15.3898 8.34416 15.1328C8.35576 14.7461 8.36739 14.3594 8.37899 13.9727C9.11096 14.7404 9.99898 15.0334 11.043 14.8516C11.0452 15.621 11.4051 16.1308 12.1226 16.3809C12.4459 16.4226 12.7709 16.446 13.0977 16.4512C13.2508 16.4768 13.3495 16.5647 13.3937 16.7148C13.4169 17.043 13.4169 17.3711 13.3937 17.6992C13.3504 17.8074 13.2865 17.9011 13.2022 17.9805Z" fill="#333333"/>
</g>
<defs>
<clipPath id="clip0_158_7320">
<rect width="17.83" height="18" fill="white" transform="translate(0.890625)"/>
</clipPath>
</defs>
</svg>
